<?xml version="1.0" encoding="utf-8"?>
<!-- Generator: Adobe Illustrator 25.0.0, SVG Export Plug-In . SVG Version: 6.00 Build 0)  -->
<svg version="1.1" xmlns="http://www.w3.org/2000/svg" xmlns:xlink="http://www.w3.org/1999/xlink" x="0px" y="0px" width="1000px"
	 height="450px" viewBox="0 0 1000 450" style="enable-background:new 0 0 1000 450;" xml:space="preserve">
<style type="text/css">
	.st0{fill:#FFFFFF;}
	.st1{fill:#E74C3C;}
	.st2{fill:none;stroke:#E74C3C;stroke-width:2.75;stroke-linecap:round;stroke-linejoin:round;}
	.st3{fill:none;stroke:#E74C3C;stroke-width:2.75;stroke-linecap:round;stroke-linejoin:round;stroke-dasharray:2.7899,5.5798;}
	.st4{fill:none;stroke:#E74C3C;stroke-width:2.75;stroke-linecap:round;stroke-linejoin:round;stroke-dasharray:3.2767,6.5533;}
	.st5{fill:none;stroke:#E74C3C;stroke-width:2.75;stroke-linecap:round;stroke-linejoin:round;stroke-dasharray:2.9657,5.9315;}
	.st6{fill:none;stroke:#E74C3C;stroke-width:2.75;stroke-linecap:round;stroke-linejoin:round;stroke-dasharray:3.245,6.4901;}
	.st7{fill:none;stroke:#E74C3C;stroke-width:2.75;stroke-linecap:round;stroke-linejoin:round;stroke-dasharray:3.2748,6.5497;}
	.st8{fill:none;stroke:#E74C3C;stroke-width:2.75;stroke-linecap:round;stroke-linejoin:round;stroke-dasharray:3.3835,6.767;}
	.st9{fill:none;stroke:#E74C3C;stroke-width:2.75;stroke-linecap:round;stroke-linejoin:round;stroke-dasharray:3.2003,6.4006;}
	.st10{fill:none;stroke:#E74C3C;stroke-width:3.25;stroke-linecap:round;stroke-linejoin:round;}
	.st11{fill:none;stroke:#E74C3C;stroke-width:3.25;stroke-linecap:round;stroke-linejoin:round;stroke-dasharray:3.9963,6.9935;}
	.st12{fill:none;stroke:#E74C3C;stroke-width:3.25;stroke-linecap:round;stroke-linejoin:round;stroke-dasharray:4.0195,7.0342;}
	.st13{fill:none;stroke:#E74C3C;stroke-width:3.25;stroke-linecap:round;stroke-linejoin:round;stroke-dasharray:4.0202,7.0353;}
	.st14{fill:none;stroke:#E74C3C;stroke-width:3.25;stroke-linecap:round;stroke-linejoin:round;stroke-dasharray:3.9895,6.9817;}
	.st15{fill:none;stroke:#E74C3C;stroke-width:3.25;stroke-linecap:round;stroke-linejoin:round;stroke-dasharray:3.9953,6.9917;}
	.st16{fill:none;stroke:#E74C3C;stroke-width:3.25;stroke-linecap:round;stroke-linejoin:round;stroke-dasharray:3.9952,6.9916;}
	.st17{fill:none;stroke:#E74C3C;stroke-width:3.25;stroke-linecap:round;stroke-linejoin:round;stroke-dasharray:3.9983,6.997;}
	.st18{fill:none;stroke:#E74C3C;stroke-width:3.25;stroke-linecap:round;stroke-linejoin:round;stroke-dasharray:4.0177,7.031;}
	.st19{fill:none;stroke:#E74C3C;stroke-width:3.25;stroke-linecap:round;stroke-linejoin:round;stroke-dasharray:3.9978,6.9962;}
	.st20{fill:none;stroke:#E74C3C;stroke-width:3.25;stroke-linecap:round;stroke-linejoin:round;stroke-dasharray:4.0207,7.0362;}
	.st21{fill:none;stroke:#E74C3C;stroke-width:3.25;stroke-linecap:round;stroke-linejoin:round;stroke-dasharray:4.0215,7.0375;}
	.st22{fill:none;stroke:#E74C3C;stroke-width:3.25;stroke-linecap:round;stroke-linejoin:round;stroke-dasharray:3.9819,6.9684;}
	.st23{fill:none;stroke:#E74C3C;stroke-width:3.25;stroke-linecap:round;stroke-linejoin:round;stroke-dasharray:3.9553,6.9218;}
	.st24{fill:none;stroke:#E74C3C;stroke-width:3.25;stroke-linecap:round;stroke-linejoin:round;stroke-dasharray:4.0698,7.1221;}
	.st25{fill:none;stroke:#E74C3C;stroke-width:3.25;stroke-linecap:round;stroke-linejoin:round;stroke-dasharray:4.0689,7.1206;}
	.st26{fill:none;stroke:#E74C3C;stroke-width:3.25;stroke-linecap:round;stroke-linejoin:round;stroke-dasharray:4.0492,7.0861;}
	.st27{fill:none;stroke:#E74C3C;stroke-width:3.25;stroke-linecap:round;stroke-linejoin:round;stroke-dasharray:3.9691,6.9459;}
	.st28{fill:none;stroke:#E74C3C;stroke-width:3.25;stroke-linecap:round;stroke-linejoin:round;stroke-dasharray:4.031,7.0543;}
	.st29{fill:none;stroke:#E74C3C;stroke-width:3.25;stroke-linecap:round;stroke-linejoin:round;stroke-dasharray:4.0079,7.0139;}
	.st30{fill:none;stroke:#E74C3C;stroke-width:3.25;stroke-linecap:round;stroke-linejoin:round;stroke-dasharray:3.9988,6.9979;}
	.st31{fill:none;stroke:#E74C3C;stroke-width:3.25;stroke-linecap:round;stroke-linejoin:round;stroke-dasharray:4.0217,7.0379;}
	.st32{fill:none;stroke:#E74C3C;stroke-width:3.25;stroke-linecap:round;stroke-linejoin:round;stroke-dasharray:4.0118,7.0206;}
	.st33{fill:none;stroke:#E74C3C;stroke-width:3.25;stroke-linecap:round;stroke-linejoin:round;stroke-dasharray:4.0171,7.0298;}
	.st34{fill:none;stroke:#E74C3C;stroke-width:3.25;stroke-linecap:round;stroke-linejoin:round;stroke-dasharray:4.0021,7.0037;}
	.st35{fill:none;stroke:#E74C3C;stroke-width:3.25;stroke-linecap:round;stroke-linejoin:round;stroke-dasharray:4.0129,7.0226;}
	.st36{fill:none;stroke:#E74C3C;stroke-width:3.25;stroke-linecap:round;stroke-linejoin:round;stroke-dasharray:3.9745,6.9555;}
	.st37{fill:none;stroke:#E74C3C;stroke-width:3.25;stroke-linecap:round;stroke-linejoin:round;stroke-dasharray:3.9905,6.9834;}
	.st38{fill:none;stroke:#E74C3C;stroke-width:3.25;stroke-linecap:round;stroke-linejoin:round;stroke-dasharray:4.0169,7.0295;}
	.st39{fill:none;stroke:#E74C3C;stroke-width:3.25;stroke-linecap:round;stroke-linejoin:round;stroke-dasharray:3.9806,6.966;}
	.st40{fill:none;stroke:#E74C3C;stroke-width:3.25;stroke-linecap:round;stroke-linejoin:round;stroke-dasharray:4.0131,7.023;}
	.st41{fill:none;stroke:#E74C3C;stroke-width:3.25;stroke-linecap:round;stroke-linejoin:round;stroke-dasharray:3.9968,6.9944;}
	.st42{fill:none;stroke:#E74C3C;stroke-width:3;stroke-linecap:round;stroke-linejoin:round;}
	.st43{fill:none;stroke:#E74C3C;stroke-width:3;stroke-linecap:round;stroke-linejoin:round;stroke-dasharray:3.979,6.9632;}
	.st44{fill:none;stroke:#E74C3C;stroke-width:3;stroke-linecap:round;stroke-linejoin:round;stroke-dasharray:3.9804,6.9656;}
	.st45{fill:none;stroke:#E74C3C;stroke-width:3;stroke-linecap:round;stroke-linejoin:round;stroke-dasharray:3.9792,6.9636;}
	.st46{fill:none;stroke:#E74C3C;stroke-width:2.75;stroke-linecap:round;stroke-linejoin:round;stroke-miterlimit:10;}
	.st47{fill:none;stroke:#E74C3C;stroke-width:3.5;stroke-linecap:round;stroke-linejoin:round;stroke-miterlimit:10;}
	.st48{fill:none;stroke:#E74C3C;stroke-width:3;stroke-linecap:round;stroke-linejoin:round;stroke-miterlimit:10;}
</style>
<g id="FILL-BACKGROUND">
	<rect x="0" class="st0" width="1000" height="450"/>
</g>
<g id="N-TEXT">
</g>
<g id="N-DIMENSIONS">
</g>
<g id="_x32_D_x24_AG-GUIDES">
</g>
<g id="_x32_D_x24_AG-DIAGRAM">
	<g id="POLYLINE_1756_">
		<g>
			<g>
				<line class="st10" x1="51.18" y1="402.22" x2="53.18" y2="402.22"/>
				<line class="st39" x1="60.146" y1="402.22" x2="943.337" y2="402.22"/>
				<line class="st10" x1="946.82" y1="402.22" x2="948.82" y2="402.22"/>
			</g>
		</g>
	</g>
</g>
<g id="_x32_D_x24_AG-SPORTS">
</g>
<g id="_x32_D_x24_AG-OUTLINE">
	<g id="POLYLINE_1701_">
		<path class="st47" d="M871.88,379.416c-2.072-1.572-3.937-3.792-5.937-5.449c-2.098-1.73-4.51-3.077-6.958-4.245
			c-0.461,2.867-1.073,5.84-1.784,8.655c0.572,0.549,1.176,1.141,1.679,1.752c2.609-0.309,6.515-0.906,9.101-0.983
			c0.427-0.007,0.863,0.005,1.284,0.077c0.407,0.066,0.828,0.188,1.159,0.37c0.064,0.034,0.11,0.064,0.137,0.08
			C870.596,379.694,871.88,379.416,871.88,379.416z"/>
	</g>
	<g id="POLYLINE_1702_">
		<path class="st47" d="M851.728,215.389c0.994-2.126,2.795-4.623,4.04-6.636c1.188-1.903,2.26-3.915,2.938-6.059
			c1.043-3.242,1.612-6.811,3.054-9.912c1.305-2.908,3.366-6.216,4.798-9.064c2.562-5.031,4.819-10.617,6.858-15.883
			c1.297-3.494,2.706-7.164,3.504-10.805c0.169-0.837,0.293-1.699,0.236-2.554c-0.056-0.945-0.359-1.864-0.676-2.75
			c-0.572-1.585-1.263-3.309-1.438-4.991c-0.128-1.125,0.069-2.261,0.371-3.343c0.585-1.999,1.341-4.177,1.594-6.252
			c0.403-2.782,0.464-6.787,1.039-9.536c0.239-1.039,0.561-2.286,1.482-2.904c0.653-0.427,1.397-0.465,2.138-0.448
			c0.588,0.004,2.942,0.257,3.558,0.297c1.067,0.115,2.24,0.293,3.129,0.922c0.611,0.435,0.996,1.05,1.265,1.704
			c0.672,1.72,0.678,3.626,0.573,5.445c-0.125,1.858-0.45,4.048-0.53,5.908c-0.057,1.142-0.013,2.33,0.077,3.47
			c0.228,2.796,0.693,6.113,0.283,8.888c-0.232,1.65-0.779,3.257-1.389,4.801c-0.562,1.422-1.604,3.706-1.966,5.167
			c-0.221,0.86-0.314,1.756-0.351,2.641l-0.084,2.859c-0.238,4.863-1.218,9.828-2.153,14.602c-1.25,5.994-2.702,12.157-4.618,17.974
			c-0.834,2.49-1.851,4.993-3.059,7.324c-0.994,1.932-3.88,6.91-4.887,8.824c-1.324,2.47-2.728,5.23-3.881,7.781
			c-1.304,2.811-2.613,6.487-4.228,9.131c0.639,1.158,1.105,2.415,1.396,3.704c0.267,1.207,0.389,2.466,0.217,3.695
			c-0.075,0.523-0.209,1.041-0.422,1.525c-0.309,0.707-0.75,1.317-1.263,1.882c-1.261,1.384-2.978,2.517-4.117,4.015
			c-0.374,0.487-0.699,1.023-0.91,1.602c-0.224,0.611-0.305,1.237-0.254,1.85c0.073,0.866,0.37,1.701,0.725,2.489
			c0.618,1.353,1.457,2.648,2.28,3.886c1.983,2.843,4.893,7.049,6.702,9.951c3.354,5.387,8.622,14.002,12.246,19.1
			c1.072,1.629,2.141,3.324,2.707,5.204c0.304,1.011,0.423,2.079,0.373,3.132c-0.067,1.477-0.436,2.934-0.904,4.332
			c-0.622,1.823-1.418,3.635-2.252,5.37c-1.854,3.782-4.058,7.469-6.936,10.566c-1.496,1.608-3.259,2.972-5.156,4.073
			c1.601,0.646,3.222,1.435,4.389,2.743c0.867,0.979,1.669,2.248,2.535,3.227c1.062,1.239,2.36,2.333,3.617,3.371
			c3.793,3.097,8.801,6.651,11.833,10.478c2.287,2.788,4.223,6.609,6.178,9.638c3.243,4.983,7.631,9.183,12.183,12.966
			c0.497,0.439,1.015,0.906,1.451,1.405c0.258,0.298,0.533,0.661,0.661,1.022c0.013,0.039,0.017,0.052,0.017,0.052
			c0.012,0.039,0.015,0.051,0.015,0.051c0.01,0.039,0.013,0.051,0.013,0.051c0.008,0.038,0.011,0.051,0.011,0.051
			c0.007,0.038,0.009,0.051,0.009,0.051c0.005,0.038,0.006,0.051,0.006,0.051c0.003,0.038,0.004,0.051,0.004,0.051
			c0.002,0.038,0.002,0.051,0.002,0.051c0,0.038-0.001,0.051-0.001,0.051c-0.002,0.038-0.003,0.051-0.003,0.051
			c-0.004,0.038-0.006,0.051-0.006,0.051c-0.006,0.038-0.008,0.051-0.008,0.051c-0.008,0.038-0.011,0.051-0.011,0.051
			c-0.01,0.038-0.013,0.051-0.013,0.051c-0.012,0.038-0.016,0.051-0.016,0.051c-0.014,0.038-0.019,0.051-0.019,0.051
			c-0.016,0.038-0.021,0.051-0.021,0.051c-0.018,0.038-0.024,0.051-0.024,0.051c-0.02,0.038-0.027,0.051-0.027,0.051
			c-0.022,0.038-0.03,0.051-0.03,0.051c-0.024,0.038-0.033,0.051-0.033,0.051c-0.026,0.038-0.036,0.051-0.036,0.051
			c2.968,3.081,6.05,6.359,8.706,9.708c1.979,2.487,3.748,5.186,4.949,8.139c1.013,2.414,1.531,5.018,1.79,7.615
			c0.122,1.339,0.117,2.71-0.168,4.029c-0.299,1.38-0.9,2.689-1.668,3.87c-0.769,1.168-1.716,2.247-2.88,3.033
			c-0.854,0.58-1.829,0.977-2.838,1.189c-1.483,0.321-3.122,0.29-4.636,0.3c-1.579-0.003-3.307-0.012-4.875-0.185
			c-1.363-0.138-2.758-0.414-4.092-0.724c-10.194-2.474-22.702-5.857-33.023-7.184c-0.416,0.349-0.851,0.508-1.345,0.665
			c-2.158,0.624-10.964,1.79-13.316,2.211c0.011,0.716-0.085,1.438-0.297,2.123c-0.139,0.447-0.354,0.943-0.629,1.312
			c-0.687,0.932-1.785,1.239-2.859,1.434c-1.053,0.179-2.163,0.241-3.23,0.286c-3.307,0.128-26.74,0.028-30.552,0.052
			c-0.837-0.016-1.709-0.032-2.536-0.162c-0.634-0.095-1.342-0.325-1.798-0.765c-0.039-0.038-0.059-0.057-0.059-0.057
			c-0.038-0.039-0.056-0.058-0.056-0.058c-0.036-0.04-0.054-0.06-0.054-0.06c-0.035-0.041-0.052-0.062-0.052-0.062
			c-0.033-0.042-0.049-0.064-0.049-0.064c-0.032-0.043-0.047-0.065-0.047-0.065c-0.03-0.045-0.045-0.067-0.045-0.067
			c-0.676-1.08-0.316-2.398,0.249-3.425l-23.118-3.842c-0.939,0.33-1.954,0.553-2.929,0.753c-2.49,0.495-5.394,0.897-7.917,1.242
			c-1.699,1.668-3.671,3.18-5.993,3.835c-1.564,0.449-3.521,0.47-5.144,0.589c-0.733,0.055-1.488,0.14-2.207,0.291
			c-1.442,0.298-3.247,0.909-4.685,1.227c-2.35,0.546-4.831,0.627-7.236,0.677c-3.353-0.053-17.39,0.165-20.452-0.099
			c-0.638-0.068-1.331-0.187-1.911-0.45c-0.487-0.214-0.889-0.563-1.157-0.984c-0.297-0.467-0.433-0.949-0.508-1.472
			c-0.123-0.944-0.009-1.908,0.212-2.829c0.413-1.694,1.329-3.226,2.424-4.567c2.128-2.576,4.855-4.665,7.874-6.092
			c3.148-1.477,6.849-2.225,10.217-3.055c1.52-0.397,3.085-0.828,4.419-1.681c0.692-0.441,1.278-1.031,1.784-1.672l1.2-1.546
			c1.57-2,3.612-3.59,5.712-5c1.589-1.037,3.247-2.053,5.052-2.666c0.868-0.286,1.794-0.446,2.707-0.345
			c0.6,0.063,1.188,0.235,1.748,0.454c0.837,0.329,1.622,0.804,2.285,1.414c1.413,1.254,2.144,3.244,2.942,4.913
			c0.302,0.63,0.632,1.271,1.025,1.848c0.449,0.666,1.022,1.306,1.562,1.901c2.8-0.105,5.943-0.265,8.736-0.15
			c0.301,0.021,0.665,0.068,0.939,0.152c0.312,0.09,0.603,0.246,0.844,0.403c2.928-0.213,5.899-0.552,8.763-1.209
			c2.404-0.52,5.063-1.546,7.37-2.429c1.594-0.595,3.268-1.028,4.97-1.145c3.743-0.26,7.48,0.598,11.06,1.616
			c-1.554-2.261-2.021-5.276-2.679-7.894c-0.547-2.326-1.413-4.604-2.378-6.787c-1.574-3.503-3.687-7.894-4.911-11.491
			c-1.427-4.133-2.564-8.442-2.959-12.805c-0.306-3.333,0.011-6.709,0.601-9.995c-0.833-2.741-0.907-5.658-0.716-8.498
			c0.27-4.091,1.045-8.622,0.823-12.721c-0.284-5.505-2.213-10.812-4.809-15.631c-2.656-5.001-6.653-10.185-8.781-15.452
			c-1.332-3.282-2.06-6.818-2.63-10.305c-3.056-2.667-5.744-6.388-5.606-10.612c0.041-1.382,0.48-2.718,1.007-3.984
			c0.741-1.815,1.877-3.89,1.882-5.887c0.001-0.984-0.266-1.951-0.57-2.879c-0.505-1.512-1.217-3.239-1.281-4.835
			c-0.049-0.888,0.121-1.775,0.4-2.615c0.571-1.736,1.571-3.404,2.301-5.074c0.31-0.731,0.611-1.517,0.62-2.319
			c0.004-0.672-0.26-1.267-0.607-1.79c-0.753-1.106-1.803-2.07-2.398-3.282c-0.489-0.969-0.775-2.044-0.85-3.127
			c-0.054-0.833,0.019-1.686,0.294-2.478c0.16-0.479,0.455-1.001,0.782-1.359c0.492-0.541,1.034-0.868,1.666-1.177
			c1.578-0.763,3.471-1.063,5.035-1.859c0.943-0.486,1.683-1.279,2.288-2.137l0.795-1.14c-0.753-0.948-1.083-2.084-1.328-3.24
			c-0.354-1.772-0.429-3.604-0.303-5.405c0.217-2.912,0.983-5.858,2.633-8.298c2.361-3.445,6.035-5.7,9.669-7.607
			c0.703-0.348,6.986-3.532,7.514-3.768c0.46-0.21,0.942-0.404,1.429-0.541c1.135-0.336,2.328-0.288,3.465,0.009l0.239-0.652
			c0.756-2.283,1.973-5.582,2.882-7.807c0.65-1.745,1.252-3.556,1.416-5.42c0.107-1.224-0.036-2.466-0.25-3.671
			c-0.231-1.307-0.619-2.914-0.596-4.236c0.002-1.426,0.512-3.263,0.808-4.662c0.708-3.12,0.524-6.812,0.539-10.008
			c0.011-1.601,0.017-3.289,0.266-4.87c0.154-0.892,0.383-1.909,1.014-2.57c0.025-0.025,0.051-0.05,0.051-0.05
			c0.026-0.024,0.052-0.047,0.052-0.047c0.027-0.023,0.053-0.045,0.053-0.045c0.027-0.022,0.055-0.042,0.055-0.042
			c0.445-0.336,1.019-0.404,1.53-0.373c0.541,0.035,1.074,0.174,1.587,0.346c0.899,0.314,1.781,0.712,2.599,1.201
			c1.105,0.659,2.057,1.603,2.608,2.775c0.992,2.13,1.197,4.775,1.57,7.078c0.488,3.508,1.581,7.496,1.785,11.035
			c0.163,2.865-0.229,5.803-1.38,8.445c-0.659,1.575-1.819,3.092-2.782,4.495c-0.722,1.058-1.391,2.191-1.699,3.445
			c-0.306,1.197-0.37,2.458-0.4,3.689c-0.015,1.735-0.061,3.694-0.309,5.405l-0.647,4.308c0.125,0.123,0.319,0.29,0.431,0.366
			c0.044,0.03,0.065,0.044,0.065,0.044c0.043,0.027,0.065,0.04,0.065,0.04c0.043,0.025,0.064,0.036,0.064,0.036
			c0.043,0.022,0.064,0.032,0.064,0.032c0.034,0.016,0.047,0.021,0.047,0.021c0.039,0.016,0.052,0.021,0.052,0.021
			c0.039,0.014,0.052,0.018,0.052,0.018c0.039,0.012,0.052,0.015,0.052,0.015c0.039,0.01,0.052,0.013,0.052,0.013
			c0.039,0.008,0.052,0.01,0.052,0.01c0.039,0.006,0.052,0.008,0.052,0.008c0.039,0.005,0.052,0.006,0.052,0.006
			c0.04,0.003,0.053,0.004,0.053,0.004c0.556,0.009,1.213-0.215,1.814-0.265c1.947-0.219,6.165-0.099,8.17-0.124
			c1.12-0.002,2.43-0.103,3.551-0.136c0.254-0.003,0.583,0.003,0.815,0.054c0.034,0.008,0.051,0.012,0.051,0.012
			c0.032,0.009,0.048,0.014,0.048,0.014c0.045,0.015,0.052,0.018,0.052,0.018c0.041,0.017,0.047,0.02,0.047,0.02
			c0.043,0.023,0.049,0.026,0.049,0.026c0.043,0.029,0.048,0.033,0.048,0.033c0.044,0.041,0.048,0.046,0.048,0.046
			c0.032,0.045,0.034,0.048,0.034,0.048c0.02,0.045,0.022,0.048,0.022,0.048c0.012,0.045,0.013,0.049,0.013,0.049
			c0.005,0.045,0.006,0.048,0.006,0.048c0,0.039,0,0.047,0,0.047c-0.004,0.041-0.005,0.049-0.005,0.049
			c-0.008,0.043-0.01,0.052-0.01,0.052c-0.012,0.045-0.015,0.054-0.015,0.054c-0.013,0.037-0.016,0.046-0.016,0.046
			c-0.015,0.038-0.019,0.047-0.019,0.047c-0.018,0.039-0.028,0.059-0.028,0.059c-0.021,0.04-0.032,0.06-0.032,0.06
			c-0.024,0.041-0.037,0.062-0.037,0.062c-0.027,0.042-0.041,0.063-0.041,0.063c-0.03,0.043-0.046,0.064-0.046,0.064
			c-0.473,0.604-1.058,0.969-1.685,1.358c-2.948,1.717-7.78,3.469-10.953,4.82c0.457,0.482,0.9,0.994,1.243,1.566
			c0.265,0.422,0.378,0.957,0.647,1.349c0.026,0.038,0.04,0.057,0.04,0.057c0.029,0.038,0.043,0.057,0.043,0.057
			c0.031,0.038,0.043,0.052,0.043,0.052c0.344,0.388,0.715,0.626,1.125,0.902c0.776,0.502,1.737,1.067,2.463,1.635
			c0.594,0.457,1.161,0.965,1.633,1.549c0.368,0.466,0.686,0.959,0.803,1.515c0.009,0.047,0.013,0.078,0.016,0.093
			c0.006,0.046,0.007,0.061,0.007,0.061c0.004,0.045,0.005,0.061,0.005,0.061c0.002,0.045,0.002,0.06,0.002,0.06
			c0,0.044,0,0.059,0,0.059c-0.002,0.044-0.003,0.058-0.003,0.058c-0.004,0.043-0.006,0.058-0.006,0.058
			c-0.006,0.043-0.009,0.057-0.009,0.057c-0.009,0.042-0.012,0.056-0.012,0.056c-0.011,0.041-0.015,0.055-0.015,0.055
			c-0.013,0.041-0.018,0.054-0.018,0.054c-0.016,0.04-0.021,0.053-0.021,0.053c-0.018,0.039-0.024,0.052-0.024,0.052
			c-0.021,0.039-0.029,0.053-0.029,0.053c-0.025,0.041-0.034,0.054-0.034,0.054c-0.028,0.04-0.038,0.053-0.038,0.053
			c-0.03,0.039-0.041,0.052-0.041,0.052c-0.033,0.038-0.044,0.051-0.044,0.051c-0.035,0.037-0.047,0.049-0.047,0.049
			c-0.038,0.036-0.05,0.048-0.05,0.048c-0.601,0.532-1.419,0.763-2.075,1.185c-0.055,0.037-0.089,0.062-0.106,0.074
			c-0.033,0.025-0.048,0.038-0.048,0.038c-0.045,0.038-0.06,0.051-0.06,0.051c-0.041,0.039-0.047,0.045-0.047,0.045
			c-0.036,0.039-0.042,0.046-0.042,0.046c-0.032,0.04-0.037,0.047-0.037,0.047c-0.027,0.041-0.031,0.048-0.031,0.048
			c-0.022,0.042-0.025,0.049-0.025,0.049c-0.017,0.043-0.019,0.05-0.019,0.05c-0.011,0.044-0.012,0.047-0.012,0.047
			c-0.006,0.045-0.006,0.048-0.006,0.048c-0.001,0.046,0,0.049,0,0.049c0.005,0.043,0.005,0.047,0.005,0.047
			c0.009,0.042,0.01,0.047,0.01,0.047c0.014,0.044,0.016,0.05,0.016,0.05c0.019,0.045,0.024,0.057,0.024,0.057
			c0.018,0.035,0.024,0.046,0.024,0.046c0.02,0.035,0.027,0.047,0.027,0.047c0.095,0.15,0.169,0.235,0.269,0.352
			c0.238,0.272,0.569,0.618,0.744,0.922c0.044,0.076,0.074,0.139,0.095,0.187c0.013,0.031,0.019,0.047,0.019,0.047
			c0.016,0.045,0.021,0.059,0.021,0.059c0.013,0.044,0.017,0.058,0.017,0.058c0.011,0.044,0.014,0.058,0.014,0.058
			c0.009,0.044,0.011,0.059,0.011,0.059c0.007,0.044,0.009,0.059,0.009,0.059c0.005,0.044,0.006,0.059,0.006,0.059
			c0.003,0.044,0.003,0.059,0.003,0.059c0.001,0.044,0,0.059,0,0.059c-0.001,0.044-0.002,0.058-0.002,0.058
			c-0.003,0.044-0.005,0.058-0.005,0.058c-0.005,0.044-0.007,0.058-0.007,0.058c-0.007,0.043-0.01,0.058-0.01,0.058
			c-0.009,0.043-0.012,0.057-0.012,0.057c-0.01,0.043-0.014,0.057-0.014,0.057c-0.012,0.042-0.016,0.057-0.016,0.057
			c-0.014,0.042-0.018,0.056-0.018,0.056c-0.082,0.231-0.197,0.415-0.332,0.579c-0.039,0.045-0.059,0.068-0.059,0.068
			c-0.041,0.043-0.061,0.065-0.061,0.065c-0.042,0.041-0.064,0.062-0.064,0.062c-0.473,0.431-1.063,0.597-1.606,0.898
			c-0.62,0.336-1.167,0.851-1.426,1.478c-0.302,0.714-0.095,1.534,0.336,2.104c0.036,0.046,0.048,0.061,0.048,0.061
			c0.037,0.044,0.05,0.059,0.05,0.059c0.039,0.042,0.052,0.056,0.052,0.056c0.04,0.041,0.054,0.054,0.054,0.054
			c0.041,0.039,0.055,0.051,0.055,0.051c0.042,0.037,0.057,0.049,0.057,0.049c0.044,0.035,0.058,0.046,0.058,0.046
			c0.045,0.033,0.06,0.043,0.06,0.043c0.046,0.03,0.061,0.04,0.061,0.04c0.031,0.019,0.047,0.028,0.047,0.028
			c0.032,0.018,0.048,0.026,0.048,0.026c0.032,0.016,0.048,0.024,0.048,0.024c0.615,0.284,1.275,0.119,1.908,0.195
			c0.04,0.006,0.053,0.008,0.053,0.008c0.039,0.007,0.051,0.01,0.051,0.01c0.036,0.009,0.054,0.013,0.054,0.013
			c0.035,0.01,0.052,0.015,0.052,0.015c0.034,0.011,0.05,0.017,0.05,0.017c0.033,0.013,0.049,0.019,0.049,0.019
			c0.032,0.014,0.047,0.021,0.047,0.021c0.046,0.023,0.06,0.031,0.06,0.031c0.044,0.025,0.058,0.033,0.058,0.033
			c0.042,0.027,0.056,0.036,0.056,0.036c0.041,0.028,0.054,0.038,0.054,0.038c0.08,0.059,0.121,0.095,0.167,0.134l0.247,0.222
			C848.422,215.958,850.061,215.512,851.728,215.389z"/>
	</g>
	<g id="POLYLINE_1703_">
		<path class="st47" d="M304.664,269.705c0.038,6.252,0.406,14.168-0.029,20.375c-0.177,2.621-0.485,5.289-1.247,7.811
			c-0.437,1.461-1.044,2.895-1.763,4.24c-0.765,1.519-4.722,7.684-5.664,9.235c-1.54,2.558-2.994,5.278-4.175,8.021
			c-1.937,4.351-5.387,14.799-7.039,19.404l-4.214,11.114c0.567,0.505,0.695,1.191,0.67,1.89c-0.036,1.288-0.627,3.983-0.832,5.282
			c-0.744,4.561-1.295,9.876-1.744,14.489c0.921-0.255,1.959-0.112,2.65,0.529c0.422,0.383,0.682,0.798,0.935,1.288
			c0.286,0.567,0.506,1.178,0.699,1.783c0.611,1.981,1.105,4.261,2.071,6.102c0.743,1.47,1.9,2.697,3.237,3.646
			c1.986,1.409,4.273,2.385,6.527,3.278c2.02,0.781,4.138,1.482,6.229,2.045c1.253,0.35,3.396,0.777,4.65,1.128
			c0.422-1.44,0.981-2.894,1.576-4.271l1.731-3.887c0.84-1.85,1.632-4.415,2.249-6.37c0.349-1.025,0.725-2.07,1.287-3
			c0.29-0.479,0.679-0.971,1.134-1.285c0.444-0.317,0.982-0.463,1.495-0.435c0.066-0.666,0.192-1.468,0.3-2.132
			c1.185-6.229,2.088-13.266,4.052-19.281c0.439-1.269,0.938-2.547,1.674-3.676c0.195-1.673,0.186-3.401,0.074-5.08
			c-0.146-2.317-0.661-7.246-0.821-9.572c-0.319-4.462-0.332-9.01,0.406-13.432c0.623-4.021,2.381-9.145,3.567-13.066
			c0.633-2.199,1.328-4.521,0.881-6.822c-0.394-2.087-1.391-4.019-2.372-5.884c-2.049-3.786-4.633-7.693-7.029-11.277
			c-1.948-2.835-7.215-10.613-9.19-13.297C306.06,269.069,305.337,269.389,304.664,269.705z"/>
	</g>
	<g id="POLYLINE_1704_">
		<path class="st47" d="M305.392,111.013l0.368-0.714c0.621-1.209,0.928-2.556,1.151-3.888c0.314-1.959,0.42-3.976,0.19-5.95
			c-0.258-2.559-1.555-5.169-2.565-7.51c-0.689-1.617-1.284-3.306-1.558-5.047c-0.521-3.302-0.283-6.736,0.685-9.936
			c0.509-1.643,1.242-3.243,2.301-4.606c1.472-1.913,3.539-3.298,5.76-4.202c2.975-1.193,6.211-1.78,9.415-1.718
			c2.56,0.055,5.121,0.557,7.519,1.451c2.996,1.123,5.837,2.842,7.941,5.282c1.69,1.95,2.723,4.399,3.247,6.909
			c0.393,1.914,0.535,3.905,0.284,5.847l-0.231,1.626c-0.064,0.513-0.102,1.041-0.013,1.554c0.122,0.705,0.49,1.393,0.778,2.033
			c0.213,0.459,0.402,0.999,0.431,1.482c0.053,0.668-0.066,1.309-0.18,1.961c-0.227,1.222-0.459,2.51-0.907,3.671
			c-0.188,0.483-0.471,1.091-0.558,1.596c-0.091,0.507-0.014,1.038,0.018,1.542c0.049,0.569-0.014,1.089-0.19,1.609
			c-0.155,0.481-0.362,1.057-0.45,1.549c-0.07,0.357-0.093,0.729-0.096,1.093c-0.008,0.794,0.069,1.716,0,2.507
			c-0.045,0.541-0.183,1.134-0.53,1.539c-0.039,0.045-0.059,0.068-0.059,0.068c-0.041,0.044-0.062,0.065-0.062,0.065
			c-0.043,0.042-0.065,0.063-0.065,0.063c-0.726,0.646-1.724,0.818-2.647,0.939c-1.374,0.151-2.788,0.147-4.168,0.084
			c-1.347,2.285-2.694,4.665-3.684,7.128c0.885,0.658,2.345,1.831,3.235,2.467c0.331,0.253,2.84,1.934,3.239,2.207
			c1.745,1.216,3.47,2.552,4.764,4.257c1.971,2.597,2.761,5.873,3.112,9.062c0.525,5.027,0.223,10.144-0.614,15.121
			c-0.665,4.159-2.26,8.989-3.337,13.072c0.838,2.161,2.021,5.1,2.632,7.299c0.73,2.496,1.228,5.179,1.659,7.744
			c0.689,4.071,1.832,12.707,2.898,16.592c0.587,2.332,1.725,5.046,2.634,7.285c2.079,0.622,4.253,0.998,6.425,1.046
			c2.599,0.085,5.472-0.342,8.069-0.156l1.868,0.138c0.411-1.539,1.355-4.145,1.848-5.675c0.737-2.112,1.582-4.238,2.817-6.114
			c1.265-1.959,3.035-3.564,5.037-4.748c2.601-1.53,5.604-2.494,8.639-2.449c1.587,0.03,3.167,0.397,4.609,1.057
			c2.225,1.014,4.126,2.629,5.798,4.392c3.102,3.313,5.528,7.254,7.406,11.374c2.364,5.241,3.792,10.938,4.195,16.672
			c0.203,3.195,0.109,6.462-0.701,9.573c-1.188,4.572-4.058,7.568-8.681,8.699c-2.713,0.664-5.564,0.643-8.313,0.209
			c-5.837-0.913-11.243-3.89-15.425-8.024c-0.392,0.323-0.888,0.599-1.365,0.694c-0.602,0.127-1.181,0.038-1.731-0.128
			c-0.473-0.144-0.937-0.352-1.379-0.571c-1.784-0.939-7.042-3.864-8.742-4.848l-2.204,0.758c0.342,0.928,0.394,1.972,0.046,2.866
			c-0.197,0.496-0.56,0.898-0.954,1.19c-0.62,0.455-1.281,0.721-1.987,0.986c-1.265,0.459-2.667,0.804-3.98,1.113
			c-1.931,0.406-4.088,0.977-6.049,1.123c-1.439,0.1-3.069-0.127-4.22-1.05c-0.168-0.141-0.298-0.281-0.399-0.419
			c-0.026-0.037-0.039-0.056-0.039-0.056c-0.025-0.038-0.037-0.057-0.037-0.057c-0.023-0.038-0.034-0.058-0.034-0.058
			c-0.021-0.039-0.031-0.058-0.031-0.058c-0.019-0.039-0.027-0.054-0.027-0.054c-0.312-0.706-0.098-1.433,0.095-2.123
			c-0.04-0.023-0.05-0.029-0.05-0.029c-0.039-0.025-0.049-0.032-0.049-0.032c-0.039-0.027-0.058-0.041-0.058-0.041
			c-0.037-0.029-0.056-0.044-0.056-0.044c-0.036-0.031-0.054-0.048-0.054-0.048c-0.035-0.033-0.053-0.051-0.053-0.051
			c-0.034-0.035-0.051-0.054-0.051-0.054c-0.033-0.037-0.049-0.057-0.049-0.057c-0.032-0.039-0.048-0.059-0.048-0.059
			c-0.031-0.041-0.046-0.062-0.046-0.062c-0.03-0.043-0.044-0.065-0.044-0.065c-0.371-0.583-0.502-1.232-0.555-1.905
			c-0.091-1.176,0.233-2.337,0.658-3.423l0.852-2.115c0.494-1.263,0.825-2.6,0.905-3.956c0.119-1.864-0.162-3.743-0.598-5.552
			c-1.947-0.817-4.269-1.652-6.264-2.357c-0.627,4.473-2.768,9.557-4.278,13.816c2.904,5.886,7.092,12.74,9.716,18.748
			c0.99,2.257,4.078,9.455,5.12,11.535c0.547,1.225,1.288,2.827,0.435,4.061c1.432,4.214,2.831,8.755,3.871,13.072
			c1.363,5.629,2.691,13.022,3.716,18.743c0.402,2.45,0.736,4.974,0.705,7.46c-0.012,1.892-0.305,3.787-0.794,5.613
			c-0.827,3.126-2.254,6.629-2.962,9.784c-0.713,3.024-1.432,7.59-2.097,10.635c-0.663,3.111-1.629,6.424-2.569,9.468
			c-1.343,4.071-3.952,12.327-5.183,16.347c-0.223,0.651-0.468,1.319-0.779,1.933c0.197,0.619,0.216,1.243,0.139,1.87
			c-0.084,0.755-0.246,1.544-0.405,2.287c-0.554,2.393-2.568,11.229-3.184,13.517c0.575-0.074,1.089,0.064,1.609,0.244
			c0.959,0.346,1.743,1.06,2.298,1.902c0.401,0.598,0.704,1.267,0.966,1.936c0.997,2.547,1.654,6.018,2.501,8.626
			c0.284,0.839,0.639,1.668,1.148,2.396c0.48,0.694,1.094,1.292,1.758,1.809c1.112,0.863,2.379,1.55,3.634,2.183
			c2.894,1.459,6.756,2.965,9.568,4.565c0.721,0.428,1.445,0.934,1.983,1.579c1.079,1.25,1.097,2.948,0.808,4.476
			c-0.12,0.617-0.299,1.228-0.546,1.806c-0.202,0.475-0.482,0.984-0.833,1.349c-0.421,0.444-0.987,0.638-1.548,0.728
			c-0.581,0.095-1.209,0.111-1.797,0.124c-5.669-0.033-18.458,0.109-23.929-0.103c-2.399-0.103-4.885-0.322-7.255-0.709
			c-5.273-0.845-10.394-2.663-15.32-4.684c-0.423,3.32-2.406,4.555-5.506,5.067c-1.255,0.21-2.595,0.297-3.868,0.355
			c-4.194,0.158-17.955,0.05-22.383,0.077c-5.867,0.012-11.885-0.423-17.66-1.46c-2.456-0.448-4.962-0.947-7.287-1.88
			c-1.296-0.548-2.729-1.271-3.524-2.46c-0.33-0.5-0.514-1.09-0.556-1.686c-0.052-0.694,0.057-1.392,0.239-2.061
			c0.519-1.921,1.724-3.732,2.69-5.458c1.301-2.177,2.445-4.87,3.432-7.215c0.763-1.722,1.513-3.584,2.87-4.931
			c0.551-0.53,1.208-0.956,1.942-0.99c0.034,0,0.052,0,0.052,0c0.034,0.001,0.051,0.002,0.051,0.002
			c0.034,0.003,0.051,0.004,0.051,0.004c0.034,0.004,0.05,0.006,0.05,0.006c0.033,0.005,0.05,0.008,0.05,0.008
			c0.686-4.607,2.729-21.135,3.592-25.401c0.124-0.519,0.259-1.107,0.536-1.561c0.022-0.035,0.034-0.051,0.034-0.051
			c0.023-0.032,0.034-0.048,0.034-0.048c0.035-0.045,0.046-0.059,0.046-0.059c0.035-0.041,0.047-0.053,0.047-0.053
			c0.036-0.037,0.048-0.049,0.048-0.049c0.037-0.034,0.049-0.045,0.049-0.045c0.038-0.031,0.051-0.041,0.051-0.041
			c0.039-0.029,0.052-0.038,0.052-0.038c0.04-0.027,0.053-0.035,0.053-0.035c0.041-0.025,0.055-0.033,0.055-0.033
			c0.127-0.072,0.254-0.127,0.368-0.162c0.07-0.61,0.072-1.748,0.112-2.359c0.361-5.536,0.437-14.275,1.452-19.629
			c0.505-2.821,1.379-5.601,2.492-8.239c1.663-4.043,4.318-8.663,6.287-12.576c0.695-1.404,1.362-2.872,1.839-4.365
			c0.932-2.818,1.056-5.84,0.818-8.78c-0.185-2.339-0.597-4.718-1.125-7.003c-0.615-2.777-2.233-7.832-3.054-10.595
			c-1.999-0.657-4.472-1.778-4.837-4.085c-0.19-1.128-0.018-2.292,0.159-3.411c0.173-1.03,0.49-2.662,0.59-3.681
			c0.108-0.999,0.153-2.034,0.135-3.039c-0.041-2.404-0.434-4.808-1.007-7.14c-1.402-5.56-3.722-11.494-4.823-17.125
			c-0.784-3.859-1.079-7.836-0.85-11.768c-0.706-0.179-1.4-0.567-1.739-1.199c-0.261-0.473-0.341-0.971-0.374-1.494
			c-0.033-0.637,0.032-1.285,0.129-1.914c0.242-1.51,0.694-3.035,1.156-4.493c2.234-6.679,5.89-15.832,7.603-22.606
			c0.656-2.495,1.223-5.11,1.606-7.662c0.462-3.051,0.711-6.321,0.881-9.405c0.328-6.188,0.432-13.95,1.831-19.973
			c1.329-6.125,3.712-12.058,6.237-17.779c0.799-4.555,2.887-8.827,5.696-12.478c1.242-1.602,2.64-3.113,4.219-4.387
			c1.1-0.889,2.33-1.642,3.581-2.298c1.107-0.573,3.04-1.519,4.079-2.16c1.011-0.601,2.722-1.846,3.705-2.529
			c0.578-0.391,1.188-0.794,1.816-1.097c0.469-0.223,0.992-0.415,1.489-0.357c0.042,0.005,0.056,0.007,0.056,0.007
			C305.158,110.927,305.263,110.96,305.392,111.013z"/>
	</g>
	<g id="POLYLINE_1739_">
		<path class="st47" d="M110.72,102.859c0.513-0.523,0.964-1.111,1.317-1.753c0.597-1.082,0.951-2.301,1.306-3.479
			c0.871-3.062,1.604-6.264,1.323-9.466c-0.099-1.12-0.324-2.238-0.643-3.316c-0.443-1.494-1.246-3.371-1.747-4.849
			c-0.544-1.592-0.942-3.254-1.061-4.934c-0.163-2.328,0.115-4.684,0.695-6.941c0.864-3.249,2.399-6.522,5.073-8.66
			c2.307-1.819,5.24-2.655,8.128-2.94c1.615-0.153,3.271-0.149,4.883,0.045c1.807,0.228,3.637,0.711,5.394,1.182
			c3.04,0.867,6.208,1.869,8.568,4.069c2.266,2.104,3.391,5.131,4.077,8.081c0.387,1.748,0.624,3.561,0.623,5.353
			c0.012,1.278-0.221,2.75-0.403,4.019c-0.123,0.873-0.137,1.771-0.085,2.651c0.053,1.057,0.197,2.552,0.108,3.593
			c-0.054,0.73-0.196,1.459-0.401,2.161c-0.691,2.325-2.055,4.7-2.879,6.977c-0.525,1.349-0.73,2.857-0.945,4.279
			c-0.093,0.548-0.222,1.164-0.458,1.658c-0.221,0.478-0.571,0.874-0.985,1.129c-0.734,0.444-1.552,0.601-2.385,0.712
			c-1.25,0.147-2.525,0.118-3.775-0.012c-0.217,2.027-0.587,4.187-0.987,6.189c2.963,1.511,5.647,3.567,8.103,5.798
			c1.722,1.585,3.432,3.261,4.722,5.225c0.67,1.017,1.225,2.118,1.638,3.264c0.316,0.873,0.556,1.795,0.743,2.705
			c1.435,7.617,2.96,16.332,3.919,24.006c0.263,2.08,0.767,6.687,1.201,8.717c0.435,2.316,1.208,4.95,1.864,7.218
			c0.32,1.187,0.602,2.415,0.673,3.645c0.016,0.523,0.068,1.221-0.143,1.693c-0.017,0.037-0.023,0.049-0.023,0.049
			c-0.17,0.351-0.468,0.623-0.745,0.835c-0.357,0.268-0.694,0.461-1.079,0.666c-1.092,0.567-2.28,1.026-3.433,1.455
			c0.654,8.353,5.836,39.384,7.121,48.181c1.162,2.837,4.262,9.566,5.089,12.396c0.678,2.164,1.153,5.731,1.551,7.997
			c0.163,1.038,0.303,2.11,0.298,3.161c-0.005,0.852-0.108,1.718-0.417,2.517c-0.832,2.115-2.732,3.571-4.381,5.039
			c-0.218,0.184-0.555,0.466-0.777,0.639c7.7,6.132,15.388,15.937,15.737,26.133c0.287,7.511-3.558,13.94-8.94,18.894
			c-6.286,5.802-13.807,8.043-22.142,5.699c-0.193,1.772-0.638,5.471-0.736,7.185c-0.12,1.715-0.139,3.546-0.089,5.266
			c0.171,4.493,0.494,10.345,0.176,14.787c-0.386,7.082-1.87,15.115-2.505,22.184l-0.231,3.627c0.247,0.065,0.458,0.154,0.647,0.258
			c0.038,0.022,0.048,0.028,0.048,0.028c0.037,0.024,0.046,0.03,0.046,0.03c0.045,0.032,0.053,0.039,0.053,0.039
			c0.043,0.036,0.051,0.044,0.051,0.044c0.041,0.041,0.048,0.05,0.048,0.05c0.031,0.037,0.038,0.047,0.038,0.047
			c0.029,0.042,0.037,0.053,0.037,0.053c0.021,0.035,0.028,0.047,0.028,0.047c0.02,0.038,0.027,0.052,0.027,0.052
			c0.019,0.042,0.026,0.056,0.026,0.056c0.143,0.362,0.168,0.681,0.207,1.048c0.047,0.534,0.056,1.131,0.06,1.669
			c-0.033,3.17-0.081,10.495-0.012,13.588c0.53,0.166,0.992,0.483,1.313,0.88c0.333,0.414,0.515,0.82,0.684,1.29
			c0.287,0.815,0.432,1.772,0.657,2.607c0.211,0.802,0.507,1.591,0.893,2.326c0.57,1.098,1.338,2.092,2.16,3.012
			c1.795,1.971,3.863,3.736,6.182,5.059c1.693,0.977,3.753,1.644,5.607,2.259c1.088,0.371,2.246,0.894,3.019,1.756
			c1.169,1.317,1.659,3.285,0.979,4.903c-0.826,1.899-2.883,2.637-4.766,2.99c-1.232,0.234-2.538,0.333-3.79,0.402
			c-4.256,0.245-25.029,0.088-29.668,0.127c-1.05-0.018-2.173-0.027-3.216-0.171c-0.653-0.09-1.362-0.266-1.885-0.663
			c-0.046-0.035-0.068-0.053-0.068-0.053c-0.044-0.036-0.065-0.055-0.065-0.055c-0.042-0.038-0.063-0.057-0.063-0.057
			c-0.041-0.039-0.06-0.058-0.06-0.058c-0.039-0.04-0.058-0.06-0.058-0.06c-0.037-0.041-0.056-0.062-0.056-0.062
			c-0.036-0.042-0.053-0.064-0.053-0.064c-0.034-0.044-0.051-0.066-0.051-0.066c-0.514-0.702-0.6-1.55-0.583-2.384
			c0.015-0.536,0.087-1.084,0.175-1.613c0.083-0.636,1.468-6.762,1.631-7.54c0.443-2.152,1.197-6.132,1.7-8.222
			c0.117-0.459,0.254-0.93,0.431-1.369c0.265-0.677,0.694-1.35,1.22-1.806c0.496-0.435,0.999-0.7,1.594-0.924
			c0.092-1.823,0.056-3.701-0.093-5.52l-0.576-6.136c-0.119-1.685-0.206-3.474-0.144-5.16c0.031-0.559,0.042-1.198,0.26-1.713
			c0.018-0.038,0.024-0.051,0.024-0.051c0.019-0.037,0.025-0.049,0.025-0.049c0.02-0.036,0.026-0.048,0.026-0.048
			c0.028-0.046,0.035-0.057,0.035-0.057c0.03-0.044,0.038-0.054,0.038-0.054c0.032-0.042,0.04-0.052,0.04-0.052
			c0.034-0.04,0.043-0.049,0.043-0.049c0.037-0.038,0.046-0.047,0.046-0.047c0.039-0.036,0.049-0.044,0.049-0.044
			c0.041-0.034,0.052-0.042,0.052-0.042c0.011-0.008-0.993-6.298-0.993-6.298c-0.207-1.234-0.524-2.917-0.781-4.143
			c-1.168-5.392-2.692-11.276-3.372-16.743c-0.47-3.517-0.544-7.125-0.347-10.666c0.146-3.043,0.742-8.671,0.719-11.687
			c-0.004-1.533-0.165-3.092-0.414-4.605c-0.4-2.251-1.014-5.518-1.181-7.765c-0.367-4.065-0.445-8.393-0.421-12.476
			c-1.261-2.142-2.374-4.404-3.291-6.715c-0.107,4.294-0.794,8.614-1.752,12.797c-1.037,4.439-2.431,8.875-4.601,12.899
			c-2.159,4.013-4.798,8.201-6.304,12.515c-2.182,6.093-2.511,13.18-3.86,19.476c-0.497,2.288-1.843,8.268-2.242,10.472
			c-0.742,3.921-1.422,8.564-1.965,12.53c0.195,0.059,0.359,0.13,0.51,0.209c0.04,0.021,0.059,0.032,0.059,0.032
			c0.038,0.023,0.047,0.028,0.047,0.028c0.046,0.031,0.055,0.037,0.055,0.037c0.044,0.034,0.052,0.041,0.052,0.041
			c0.042,0.039,0.05,0.047,0.05,0.047c0.039,0.044,0.047,0.053,0.047,0.053c0.03,0.04,0.037,0.051,0.037,0.051
			c0.029,0.045,0.036,0.057,0.036,0.057c0.021,0.037,0.027,0.05,0.027,0.05c0.02,0.041,0.026,0.055,0.026,0.055
			c0.149,0.368,0.173,0.689,0.213,1.063c0.047,0.534,0.056,1.131,0.06,1.669c-0.034,3.17-0.081,10.495-0.012,13.588
			c0.56,0.175,1.045,0.521,1.371,0.953c0.346,0.459,0.528,0.913,0.698,1.435c0.258,0.815,0.428,1.877,0.649,2.704
			c0.239,0.926,0.577,1.839,1.01,2.691c0.714,1.4,1.664,2.686,2.697,3.867c1.068,1.206,2.263,2.331,3.6,3.235
			c1.74,1.195,3.841,1.889,5.831,2.548c1.026,0.352,2.111,0.832,2.877,1.608c1.191,1.228,1.74,3.082,1.25,4.699
			c-0.681,2.14-2.942,3.005-4.953,3.383c-1.24,0.237-2.547,0.33-3.808,0.393c-5.08,0.16-24.815,0.15-30.072,0.031
			c-1.011-0.076-2.144-0.154-2.982-0.768c-0.046-0.035-0.068-0.053-0.068-0.053c-0.044-0.036-0.065-0.055-0.065-0.055
			c-0.042-0.038-0.063-0.057-0.063-0.057c-0.041-0.039-0.06-0.058-0.06-0.058c-0.039-0.04-0.058-0.06-0.058-0.06
			c-0.037-0.041-0.056-0.062-0.056-0.062c-0.036-0.042-0.053-0.064-0.053-0.064c-0.034-0.044-0.051-0.066-0.051-0.066
			c-0.514-0.702-0.6-1.55-0.583-2.384c0.015-0.536,0.087-1.084,0.175-1.613c0.083-0.636,1.468-6.762,1.631-7.54
			c0.443-2.152,1.197-6.132,1.7-8.222c0.117-0.459,0.254-0.93,0.431-1.369c0.265-0.677,0.694-1.35,1.22-1.806
			c0.496-0.435,0.999-0.7,1.594-0.924c0.092-1.823,0.056-3.701-0.093-5.52l-0.576-6.136c-0.127-1.828-0.225-3.748-0.122-5.577
			c0.028-0.405,0.07-0.88,0.219-1.25c0.016-0.038,0.024-0.057,0.024-0.057c0.017-0.037,0.026-0.055,0.026-0.055
			c0.018-0.035,0.028-0.053,0.028-0.053c0.019-0.034,0.029-0.051,0.029-0.051c0.021-0.033,0.031-0.049,0.031-0.049
			c0.022-0.031,0.033-0.047,0.033-0.047c0.035-0.045,0.047-0.059,0.047-0.059c0.038-0.042,0.051-0.056,0.051-0.056
			c0.041-0.04,0.055-0.053,0.055-0.053c0.044-0.037,0.059-0.049,0.059-0.049c0.031-0.023,0.047-0.035,0.047-0.035
			c0.033-0.022,0.049-0.033,0.049-0.033c0.034-0.021,0.052-0.031,0.052-0.031c0.036-0.02,0.054-0.03,0.054-0.03
			c0.038-0.019,0.057-0.028,0.057-0.028c0.039-0.018,0.059-0.026,0.059-0.026c0.041-0.017,0.062-0.025,0.062-0.025
			c0.191-0.07,0.31-0.095,0.488-0.127c-0.075-1.228-0.559-8.772-0.646-9.728c-0.051-0.869-0.742-7.766-0.839-8.824
			c-0.34-3.789-0.654-7.769-0.555-11.567c0.069-2.788,0.433-5.593,1.124-8.296c1.717-6.731,5.439-13.292,7.206-20.007
			c1.194-4.39,1.5-9,1.543-13.533c0.006-5.75-0.06-11.784-0.614-17.508c-0.153-0.073-0.285-0.158-0.395-0.245
			c-0.045-0.037-0.067-0.056-0.067-0.056c-0.044-0.04-0.065-0.06-0.065-0.06c-0.042-0.042-0.063-0.064-0.063-0.064
			c-0.075-0.082-0.096-0.11-0.138-0.164c-0.428-0.593-0.57-1.272-0.689-1.973c-0.207-1.387-0.184-2.842-0.156-4.242
			c0.523-8.653,0.251-19.496,0.969-28.125c-0.224-0.089-0.506-0.228-0.686-0.351c-0.109-0.073-0.191-0.14-0.256-0.199
			c-0.045-0.043-0.06-0.057-0.06-0.057c-0.043-0.044-0.057-0.059-0.057-0.059c-0.342-0.379-0.461-0.8-0.568-1.259
			c-0.495-2.716-0.772-6.786-1.054-9.565l-9.302-8.869c-0.557-0.518-1.153-1.035-1.81-1.42c-0.648-0.381-1.467-0.73-1.93-1.323
			c-0.03-0.038-0.045-0.058-0.045-0.058c-0.028-0.04-0.042-0.06-0.042-0.06c-0.027-0.041-0.04-0.062-0.04-0.062
			c-0.025-0.043-0.031-0.054-0.031-0.054c-0.023-0.044-0.028-0.055-0.028-0.055c-0.021-0.046-0.026-0.057-0.026-0.057
			c-0.014-0.035-0.019-0.047-0.019-0.047c-0.013-0.036-0.017-0.048-0.017-0.048c-0.011-0.037-0.015-0.049-0.015-0.049
			c-0.01-0.038-0.013-0.051-0.013-0.051c-0.008-0.039-0.01-0.052-0.01-0.052c-0.006-0.04-0.008-0.053-0.008-0.053
			c-0.004-0.041-0.006-0.054-0.006-0.054c-0.002-0.041-0.003-0.055-0.003-0.055c0-0.042,0-0.057,0-0.057
			c0.002-0.043,0.003-0.058,0.003-0.058c0.004-0.044,0.006-0.059,0.006-0.059c0.006-0.045,0.009-0.061,0.009-0.061
			c0.095-0.501,0.395-0.881,0.676-1.255c0.432-0.554,1.042-1.175,1.531-1.686c0.746-0.743,1.533-1.655,2.459-2.161
			c0.143-0.071,0.27-0.115,0.391-0.141c0.046-0.009,0.061-0.011,0.061-0.011c0.045-0.007,0.059-0.008,0.059-0.008
			c0.044-0.004,0.058-0.005,0.058-0.005c0.043-0.002,0.057-0.002,0.057-0.002c0.042,0,0.056,0,0.056,0
			c0.041,0.002,0.055,0.003,0.055,0.003c0.04,0.004,0.053,0.006,0.053,0.006c0.039,0.006,0.052,0.008,0.052,0.008
			c0.039,0.008,0.051,0.01,0.051,0.01c0.038,0.009,0.05,0.013,0.05,0.013c0.037,0.011,0.049,0.015,0.049,0.015
			c0.036,0.012,0.048,0.017,0.048,0.017c0.035,0.014,0.047,0.019,0.047,0.019c0.046,0.02,0.057,0.026,0.057,0.026
			c0.044,0.022,0.055,0.028,0.055,0.028c0.043,0.024,0.064,0.037,0.064,0.037c0.042,0.026,0.062,0.039,0.062,0.039
			c0.04,0.028,0.06,0.042,0.06,0.042c0.67,0.498,0.976,1.233,1.406,1.899c0.402,0.636,0.93,1.208,1.459,1.74l3.633,3.573
			c-0.216-3.528-0.423-7.428-0.39-10.954l0.1-4.878c-2.212-4.209-4.471-8.726-6.283-13.118c-0.876-2.161-1.738-4.411-2.258-6.687
			c-0.174-0.786-0.304-1.595-0.293-2.402c-0.003-0.872,0.235-1.882,0.402-2.738c-0.042-0.002-0.062-0.004-0.062-0.004
			c-0.04-0.004-0.06-0.006-0.06-0.006c-0.039-0.005-0.058-0.008-0.058-0.008c-0.037-0.007-0.047-0.009-0.047-0.009
			c-0.045-0.011-0.054-0.013-0.054-0.013c-0.043-0.013-0.052-0.016-0.052-0.016c-0.042-0.015-0.05-0.019-0.05-0.019
			c-0.04-0.018-0.048-0.022-0.048-0.022c-0.045-0.025-0.053-0.029-0.053-0.029c-0.043-0.028-0.05-0.033-0.05-0.033
			c-0.041-0.033-0.048-0.039-0.048-0.039c-0.045-0.044-0.051-0.051-0.051-0.051c-0.036-0.042-0.041-0.049-0.041-0.049
			c-0.028-0.038-0.033-0.046-0.033-0.046c-0.026-0.041-0.031-0.049-0.031-0.049c-0.024-0.044-0.029-0.053-0.029-0.053
			c-0.018-0.037-0.022-0.047-0.022-0.047c-0.017-0.039-0.025-0.059-0.025-0.059c-0.015-0.041-0.023-0.062-0.023-0.062
			c-0.014-0.043-0.021-0.066-0.021-0.066c-0.104-0.381-0.105-0.729-0.099-1.112c0.018-0.621,0.101-1.277,0.186-1.894
			c0.737-4.781,2.866-15.599,3.527-20.314c0.656-4.002,1.21-10.584,1.586-14.675c0.327-2.942,0.682-5.976,1.839-8.724
			c0.496-1.167,1.195-2.247,2.023-3.205c1.727-2.009,4.131-3.664,6.049-5.481l3.351-3.187c1.304-1.209,2.701-2.386,4.171-3.386
			c2.078-1.41,4.32-2.61,6.622-3.61c1.121-0.479,2.286-0.929,3.464-1.244C109.486,102.976,110.109,102.849,110.72,102.859z"/>
	</g>
	<g id="POLYLINE_1742_">
		<path class="st47" d="M561.99,138.141c0.052-2.128,0.326-4.276,0.973-6.309c0.919-2.874,2.496-5.537,4.484-7.799
			c1.894-2.125,4.318-3.97,7.173-4.491c2.847-0.508,5.776,0.181,8.398,1.302c1.981,0.865,3.872,1.997,5.501,3.424
			c1.141,1.006,2.137,2.191,2.874,3.524c0.709,1.27,1.174,2.671,1.44,4.098c0.678,3.726,0.339,7.591-0.075,11.331
			c-0.38,3.209-0.863,6.476-1.955,9.529c-0.956,2.753-2.544,5.249-4.258,7.588c-1.46,1.906-3.284,4.547-4.911,6.307
			c0.316,1.301,0.758,2.927,0.896,4.245c0.201,1.724,0.19,3.538,0.166,5.274c-0.178,6.476-0.71,13.084-1.851,19.464
			c0.389,0.676,2.477,4.093,2.926,4.831c0.956,1.646,1.952,3.351,2.549,5.165c2.58,4.203,5.572,8.23,8.893,11.876
			c2.827,3.144,6.542,6.265,9.784,9.008c2.427,2.036,5.071,4.353,7.849,5.872c0.942,0.517,1.937,0.965,2.967,1.273
			c1.438,0.442,3.139,0.645,4.63,0.866c1.583,0.235,3.232,0.565,4.535,1.552c2.49-2.147,4.318-4.974,5.994-7.774
			c3.258-5.6,5.911-11.752,8.371-17.74c1.61-4.178,3.887-8.11,6.58-11.682c2.422-3.186,5.229-6.161,8.614-8.332
			c3.511-2.249,7.721-3.552,11.908-3.228c2.493,0.182,4.982,1.056,6.876,2.719c0.996,0.873,1.804,1.953,2.442,3.111
			c0.953,1.729,1.528,3.651,1.928,5.577c0.721,3.539,0.771,7.204,0.375,10.787c-0.506,4.516-1.695,8.975-3.545,13.126
			c-1.879,4.204-4.513,8.148-8.04,11.145c-2.923,2.49-6.451,4.357-10.25,5.031c-1.011,0.178-2.058,0.269-3.085,0.256
			c-1.65-0.027-3.914-0.009-5.564,0.023c-4.505,0.122-9.148,0.368-13.567,1.289c-1.725,0.389-3.491,0.852-5.001,1.801
			c0.207,0.718,0.343,1.566,0.042,2.251c-0.021,0.045-0.028,0.06-0.028,0.06c-0.033,0.066-0.049,0.092-0.062,0.115
			c-0.025,0.041-0.038,0.061-0.038,0.061c-0.027,0.04-0.04,0.06-0.04,0.06c-0.028,0.039-0.043,0.058-0.043,0.058
			c-0.03,0.038-0.045,0.057-0.045,0.057c-0.031,0.037-0.048,0.055-0.048,0.055c-0.353,0.384-0.737,0.59-1.181,0.783
			c-0.463,0.193-0.957,0.325-1.449,0.42c0.378,0.709,0.66,1.489,0.704,2.297c0.042,0.627-0.096,1.335-0.341,1.89
			c-0.361,0.824-0.888,1.453-1.537,2.031c-1.369,1.188-3.074,1.923-4.795,2.441c-2.333,0.674-4.815,0.976-7.229,0.628
			c-1.148,1.211-2.401,2.559-4.057,3.014c-0.624,0.172-1.27,0.041-1.814-0.207c-0.598-0.262-1.133-0.636-1.56-1.062
			c-0.59-0.598-1.025-1.331-1.074-2.152c-0.039-0.735,0.177-1.388,0.461-2.029c0.333-0.732,0.774-1.422,1.239-2.077
			c-0.214-0.28-0.537-0.73-0.744-1.02c-1.199,0.241-2.333-0.174-3.403-0.656c-1.463-0.684-2.847-1.566-4.166-2.493
			c-1.55-1.112-3.079-2.311-4.378-3.714c-0.877-0.941-1.594-2.05-2.268-3.143c-2.555-1.733-4.733-4.024-6.841-6.262
			c-3.43-3.732-6.737-7.737-9.513-11.98c-0.522,0.296-1.128,0.446-1.707,0.379c-1.079-0.124-2.102-0.726-3.031-1.258
			c-1.319,3.876-2.528,8.016-1.802,12.136l0.567,3.263c0.224,1.43,0.345,2.915,0.021,4.338c0.459,0.87,1.044,1.914,1.392,2.824
			c0.323,0.805,0.64,2.035,0.885,2.88c0.353,1.216,0.777,2.438,1.424,3.531c0.884,1.493,2.12,2.766,3.355,3.972
			c1.071,1.016,3.101,2.915,4.118,3.94c0.024,0,5.375,5.57,5.632,5.835c1.646,1.665,3.403,3.306,5.3,4.683
			c1.534,1.143,3.927,2.646,5.208,4.043c0.476,0.521,0.902,1.115,1.136,1.785c0.257,0.704,0.214,1.496-0.145,2.125
			c3.011,3.33,5.99,6.958,8.576,10.625c1.696,2.358,3.977,6.061,5.702,8.398c1.752,2.42,3.989,4.809,5.548,7.362
			c0.887,1.465,1.615,3.078,2.282,4.655c1.58,4.063,4.595,10.722,6.439,14.743c2.669,6.082,5.001,12.516,6.802,18.908
			c0.809,3.03,1.588,6.152,1.651,9.303c0.639,0.155,1.303,0.32,1.903,0.589c0.48,0.207,0.999,0.548,1.358,0.901
			c0.477,0.461,0.844,0.988,1.187,1.549c0.346,0.57,0.667,1.201,0.958,1.802c1.402,3.041,5.315,11.065,6.472,14.084
			c1.206-0.559,2.583-0.71,3.89-0.488c1.053,0.171,2.055,0.584,3.008,1.053c1.249,0.606,2.752,1.556,3.992,2.188
			c0.362,0.181,0.742,0.346,1.126,0.47c0.73,0.238,1.504,0.331,2.27,0.362c1.553,0.054,3.261-0.09,4.814-0.218
			c3.401-0.273,9.444-1.111,12.857-1.388c0.587-0.032,1.195-0.044,1.78,0.031c0.744,0.088,1.468,0.36,2.069,0.789
			c1.035,0.729,1.809,1.785,2.344,2.922c0.425,0.918,0.716,1.92,0.698,2.938c-0.017,1.7-0.932,3.197-2.051,4.409
			c-1.15,1.254-2.512,2.362-3.849,3.411c-3.547,2.672-7.346,5.514-11.112,7.862c-4.085,2.514-8.432,4.813-12.846,6.694
			c-2.042,0.852-4.169,1.611-6.362,1.949c-1.027,0.163-2.091,0.224-3.13,0.232c-0.893-0.008-2.299,0.02-3.188-0.044
			c-1.164-0.072-2.384-0.245-3.41-0.828c-0.837-0.478-1.466-1.192-1.981-1.99c-0.696-1.091-1.153-2.327-1.518-3.564
			c-0.519-1.953-1.198-4.167-1.902-6.05c-0.843-2.278-2.505-6.416-3.175-8.704c-0.135-0.471-0.27-0.96-0.339-1.446
			c-0.095-0.595-0.064-1.262,0.111-1.814c0.215-0.713,0.597-1.298,1.029-1.885c-2.88-3.13-5.662-6.481-7.894-10.108
			c-0.517-0.865-1.029-1.766-1.367-2.718c-0.199-0.575-0.359-1.251-0.189-1.84c0.014-0.045,0.021-0.068,0.021-0.068
			c0.016-0.044,0.024-0.066,0.024-0.066c0.018-0.043,0.027-0.064,0.027-0.064c0.02-0.042,0.03-0.063,0.03-0.063
			c0.022-0.041,0.033-0.062,0.033-0.062c0.025-0.042,0.038-0.062,0.038-0.062c0.027-0.041,0.041-0.061,0.041-0.061
			c0.029-0.04,0.044-0.059,0.044-0.059c0.031-0.039,0.047-0.058,0.047-0.058c0.033-0.038,0.05-0.056,0.05-0.056
			c0.035-0.037,0.053-0.055,0.053-0.055c0.037-0.036,0.056-0.054,0.056-0.054c0.078-0.071,0.146-0.124,0.187-0.155
			c0.022-0.017-1.11-1.385-1.11-1.385c-3.671-4.631-7.857-9.672-11.017-14.643c-2.202-3.399-4.069-7.095-5.706-10.797
			c-1.451-3.244-4.208-10.188-5.938-13.178c-0.685-1.193-1.502-2.33-2.488-3.293c-0.664-0.655-1.41-1.25-2.165-1.797
			c-2.174-1.587-7.095-4.48-9.426-5.945c-5.924-3.742-11.6-8.228-16.954-12.743c-0.494,0.313-1.007,0.495-1.554,0.547
			c-0.642,0.061-1.291-0.035-1.914-0.185c-2.503-0.642-5.094-2.161-7.437-3.237c-3.094-1.463-6.936-2.727-10.078-4.09
			c-2.772,4.059-5.79,8.493-7.812,12.965c-1.027,2.176-2.498,5.852-3.785,7.84c-0.409,0.609-0.902,1.276-1.575,1.588
			c-1.288,7.201-3.458,14.34-6.919,20.805c-1.586,2.92-3.411,5.776-5.652,8.238c-0.909,0.983-1.923,1.884-3.056,2.602
			c-0.57,0.364-1.189,0.691-1.799,0.982c-3.463,1.684-31.559,13.35-35.742,15.135c-1.912,0.782-3.97,1.694-5.986,2.169l0.176,0.387
			c0.029,0.069,0.052,0.13,0.063,0.16c0.022,0.061,0.034,0.102,0.04,0.121c0.011,0.041,0.016,0.061,0.016,0.061
			c0.01,0.041,0.014,0.061,0.014,0.061c0.008,0.041,0.011,0.062,0.011,0.062c0.005,0.041,0.007,0.052,0.007,0.052
			c0.004,0.041,0.004,0.052,0.004,0.052c0.002,0.042,0.002,0.052,0.002,0.052c-0.001,0.042-0.001,0.052-0.001,0.052
			c-0.003,0.042-0.004,0.052-0.004,0.052c-0.005,0.042-0.007,0.052-0.007,0.052c-0.008,0.042-0.01,0.053-0.01,0.053
			c-0.011,0.042-0.014,0.053-0.014,0.053c-0.013,0.039-0.016,0.048-0.016,0.048c-0.018,0.045-0.021,0.055-0.021,0.055
			c-0.021,0.046-0.025,0.055-0.025,0.055c-0.024,0.046-0.034,0.064-0.034,0.064c-0.022,0.037-0.033,0.055-0.033,0.055
			c-0.024,0.037-0.036,0.055-0.036,0.055c-0.026,0.037-0.04,0.055-0.04,0.055c-0.306,0.39-0.639,0.631-1.009,0.906
			c-0.372,0.273-1.398,0.935-1.797,1.199c-1.339,0.891-3.188,2.347-4.54,3.218c0.432,0.807,0.578,1.734,0.579,2.641
			c0.001,1.241-0.204,2.503-0.414,3.725c-0.478,2.644-1.12,5.61-1.075,8.29c0.021,1.458,0.263,2.94,0.909,4.259
			c0.56,1.162,1.45,2.167,2.554,2.838c1.54,0.954,3.447,1.433,4.826,2.641c0.741,0.664,1.203,1.475,1.514,2.392
			c0.249,0.755,0.371,1.558,0.341,2.353c-0.024,0.765-0.233,1.588-0.686,2.189c-0.932,1.235-2.523,1.569-3.966,1.766
			c-2.868,0.397-15,0.154-18.097,0.22c-1.078-0.011-2.204-0.026-3.271-0.187c-0.917-0.135-1.823-0.396-2.648-0.822
			c-1.755-0.921-3.183-2.38-4.338-3.971c-1.533-2.106-2.409-4.641-2.601-7.233c-0.166-1.844,0.111-3.86-0.775-5.559
			c-0.449-0.857-1.126-1.573-1.804-2.252c-1.031-1.012-2.635-2.447-3.522-3.556c-0.865-1.044-1.63-2.19-2.225-3.409
			c-0.702-1.463-1.23-3.094-1.055-4.734c0.102-0.986,0.525-1.941,1.134-2.673c0.832-1.003,1.946-1.739,3.031-2.442
			c0.679-0.426,2.996-1.844,3.613-2.275c1.918-1.281,4.048-3.191,6.002-4.419c0.608-0.377,1.253-0.718,1.944-0.914
			c1.735-0.484,3.585-0.227,5.337,0.037c2.825-2.431,5.912-4.852,8.968-6.984c0.632-0.425,1.295-0.863,1.98-1.195
			c0.598-0.29,1.257-0.476,1.888-0.332c0.045,0.012,0.068,0.018,0.068,0.018c0.044,0.014,0.055,0.018,0.055,0.018
			c0.325-0.29,0.813-0.926,1.111-1.243c0.696-0.784,1.544-1.692,2.277-2.441c2.201-2.249,4.679-4.492,7.065-6.547
			c1.867-1.598,3.844-3.136,5.974-4.367c1.83-1.069,3.808-1.916,5.81-2.605c3.004-1.021,6.146-1.802,9.298-2.186
			c0.644-0.071,2.111-0.203,2.743-0.319c0.44-0.079,0.927-0.203,1.304-0.432c0.044-0.027,0.066-0.041,0.066-0.041
			c0.113-0.074,0.191-0.139,0.258-0.201c0.046-0.044,0.061-0.059,0.061-0.059c0.636-0.661,0.797-1.588,0.951-2.441
			c0.184-1.148,0.285-2.379,0.367-3.539c0.224-3.495,0.359-8.831,0.486-12.374c-0.041-0.002-0.055-0.003-0.055-0.003
			c-0.04-0.004-0.054-0.006-0.054-0.006c-0.039-0.006-0.053-0.009-0.053-0.009c-0.039-0.008-0.051-0.012-0.051-0.012
			c-0.039-0.011-0.052-0.015-0.052-0.015c-0.038-0.013-0.051-0.018-0.051-0.018c-0.037-0.016-0.049-0.021-0.049-0.021
			c-0.036-0.018-0.048-0.024-0.048-0.024c-0.035-0.02-0.047-0.027-0.047-0.027c-0.046-0.03-0.057-0.038-0.057-0.038
			c-0.045-0.034-0.055-0.042-0.055-0.042c-0.043-0.037-0.054-0.047-0.054-0.047c-0.042-0.04-0.052-0.051-0.052-0.051
			c-0.04-0.044-0.05-0.055-0.05-0.055c-0.029-0.035-0.039-0.047-0.039-0.047c-0.029-0.037-0.038-0.05-0.038-0.05
			c-0.401-0.583-0.52-1.235-0.636-1.903c-0.16-1.059-0.183-2.157-0.169-3.227c0.006-2.232,0.582-7.071,0.793-9.355
			c0.259-2.757,0.369-5.713,0.384-8.484c0.059-5.388-0.315-15.958,0.118-21.254c0.226-3.507,1.119-7.495,1.882-10.934
			c-1.164-2.635-0.986-5.622-0.449-8.388c0.875-4.307,2.494-8.503,4.849-12.22c1.147-1.787,2.735-4.032,3.576-5.94
			c0.603-1.317,1.006-2.727,1.285-4.146c0.727-3.644,1.016-9.207,1.516-12.913c0.346-2.706,0.875-5.431,1.718-8.028
			c1.96-6.155,5.41-11.805,8.878-17.215c3.967-6.15,8.341-12.557,12.782-18.374c3.199-4.187,6.767-8.295,10.58-11.936
			c1.171-1.113,2.449-2.317,3.73-3.303c0.704-0.535,1.444-1.063,2.262-1.41c0.695-0.305,1.458-0.404,2.199-0.518
			c0.073-0.173,0.12-0.264,0.195-0.407c0.538-0.928,0.965-1.937,1.304-2.953c-0.508-1.788-0.45-3.71-0.438-5.552
			c0.014-0.651,0.024-1.383,0.108-2.026c0.045-0.352,0.125-0.751,0.272-1.067c0.021-0.044,0.031-0.065,0.031-0.065
			c0.022-0.042,0.033-0.062,0.033-0.062c0.023-0.04,0.035-0.059,0.035-0.059c0.024-0.038,0.037-0.057,0.037-0.057
			c0.026-0.036,0.039-0.054,0.039-0.054c0.034-0.043,0.041-0.051,0.041-0.051c0.036-0.04,0.043-0.048,0.043-0.048
			c0.045-0.045,0.053-0.052,0.053-0.052c0.039-0.035,0.048-0.042,0.048-0.042c0.041-0.032,0.05-0.039,0.05-0.039
			c0.043-0.03,0.052-0.035,0.052-0.035c0.042-0.025,0.057-0.034,0.057-0.034c0.031-0.016,0.046-0.024,0.046-0.024
			c0.032-0.015,0.048-0.022,0.048-0.022c0.033-0.014,0.049-0.02,0.049-0.02c0.034-0.012,0.051-0.018,0.051-0.018
			c0.034-0.011,0.052-0.016,0.052-0.016c0.035-0.01,0.053-0.014,0.053-0.014c0.376-0.09,0.758-0.049,1.095,0.01
			C561.275,137.894,561.619,138,561.99,138.141z"/>
	</g>
	<g id="POLYLINE_1743_">
		<path class="st47" d="M665.688,317.964c0.023,0.042,0.027,0.049,0.027,0.049c0.026,0.041,0.031,0.047,0.031,0.047
			c0.036,0.046,0.041,0.052,0.041,0.052c0.041,0.044,0.047,0.05,0.047,0.05c0.04,0.036,0.046,0.042,0.046,0.042
			c0.036,0.029,0.051,0.041,0.051,0.041c0.031,0.022,0.047,0.034,0.047,0.034c0.034,0.022,0.051,0.032,0.051,0.032
			c0.036,0.021,0.054,0.031,0.054,0.031c0.043,0.012,0.047,0.012,0.047,0.012c0.046,0.009,0.05,0.01,0.05,0.01
			c0.044,0.016,0.047,0.017,0.047,0.017c0.044,0.025,0.048,0.027,0.048,0.027c1.185,1.135,1.885,2.748,1.964,4.383
			c0.095,1.828-0.615,3.676-1.91,4.97c-0.044,0.038-0.047,0.04-0.047,0.04c-0.044,0.026-0.047,0.028-0.047,0.028
			c-0.043,0.017-0.047,0.018-0.047,0.018c-0.045,0.01-0.049,0.011-0.049,0.011c-0.036,0.003-0.055,0.013-0.055,0.013
			c-0.036,0.021-0.054,0.031-0.054,0.031c-0.034,0.021-0.051,0.032-0.051,0.032c-0.032,0.022-0.047,0.034-0.047,0.034
			c-0.044,0.035-0.051,0.041-0.051,0.041c-0.04,0.036-0.046,0.042-0.046,0.042c-0.042,0.044-0.047,0.05-0.047,0.05
			c-0.036,0.045-0.041,0.052-0.041,0.052c-0.027,0.04-0.031,0.047-0.031,0.047c-0.023,0.042-0.027,0.049-0.027,0.049
			c-0.001,0.045-0.002,0.046-0.002,0.046c-0.029,0.045-0.032,0.049-0.032,0.049c-1.111,0.884-2.534,1.352-3.949,1.369
			c-1.449,0.018-2.898-0.461-4.052-1.338c-0.04-0.046-0.041-0.048-0.041-0.048c-0.024-0.046-0.024-0.047-0.024-0.047
			c0-0.04-0.004-0.047-0.004-0.047c-0.024-0.041-0.028-0.048-0.028-0.048c-0.028-0.04-0.033-0.047-0.033-0.047
			c-0.037-0.045-0.043-0.052-0.043-0.052c-0.042-0.043-0.049-0.049-0.049-0.049c-0.041-0.036-0.048-0.042-0.048-0.042
			c-0.037-0.029-0.052-0.04-0.052-0.04c-0.032-0.022-0.049-0.033-0.049-0.033c-0.034-0.021-0.052-0.032-0.052-0.032
			c-0.037-0.021-0.055-0.031-0.055-0.031c-0.043-0.004-0.047-0.005-0.047-0.005c-0.045-0.011-0.049-0.013-0.049-0.013
			c-0.043-0.018-0.046-0.02-0.046-0.02c-0.043-0.028-0.047-0.03-0.047-0.03c-2.593-2.552-2.6-6.766-0.038-9.341
			c0.044-0.038,0.047-0.04,0.047-0.04c0.044-0.026,0.047-0.028,0.047-0.028c0.043-0.017,0.047-0.018,0.047-0.018
			c0.045-0.01,0.049-0.011,0.049-0.011c0.036-0.003,0.054-0.013,0.054-0.013c0.037-0.021,0.054-0.031,0.054-0.031
			c0.034-0.021,0.051-0.032,0.051-0.032c0.032-0.022,0.047-0.034,0.047-0.034c0.044-0.035,0.051-0.041,0.051-0.041
			c0.04-0.036,0.046-0.042,0.046-0.042c0.042-0.044,0.047-0.05,0.047-0.05c0.036-0.045,0.041-0.052,0.041-0.052
			c0.027-0.04,0.031-0.047,0.031-0.047c0.023-0.042,0.027-0.049,0.027-0.049c0.001-0.045,0.002-0.046,0.002-0.046
			c0.029-0.045,0.032-0.049,0.032-0.049c1.111-0.884,2.534-1.352,3.949-1.369c1.449-0.018,2.898,0.461,4.052,1.338
			c0.04,0.046,0.041,0.048,0.041,0.048C665.69,317.93,665.691,317.931,665.688,317.964z"/>
	</g>
</g>
</svg>
